<svg width="250" height="272" viewBox="0 0 250 272" fill="none" xmlns="http://www.w3.org/2000/svg">
<path d="M125.081 272L0.08101 204.057L0 68.0954L124.919 0L249.919 68.0191L250 203.905L125.081 272ZM36.536 184.285L125.081 232.379L213.545 184.132L213.464 87.8675L124.919 39.6969L36.4549 87.9439L36.536 184.285Z" fill="url(#paint0_linear_2_3)"/>
<path d="M125 207.264L59.6241 171.689L59.5431 100.464L124.919 64.8891L190.457 100.464V171.613L125 207.264ZM96.079 151.841L125 167.567L153.921 151.764V120.312L125 104.586L96.079 120.312V151.841Z" fill="url(#paint1_linear_2_3)"/>
<defs>
<linearGradient id="paint0_linear_2_3" x1="1.62445e-05" y1="0" x2="1109" y2="0" gradientUnits="userSpaceOnUse">
<stop stop-color="#00D338"/>
<stop offset="0.29861" stop-color="#003A07"/>
</linearGradient>
<linearGradient id="paint1_linear_2_3" x1="1.62445e-05" y1="0" x2="1109" y2="0" gradientUnits="userSpaceOnUse">
<stop stop-color="#00D338"/>
<stop offset="0.29861" stop-color="#003A07"/>
</linearGradient>
</defs>
</svg>
